Normalized EMG Linear Envelopes
nRows=262
nColumns=4

endheader
time	 med_gas_r	  soleus_r	 tib_ant_r	
3.39315	  0.041782	  0.241363	  0.060593	
3.42641	  0.041802	  0.238734	  0.059699	
3.45968	  0.041750	  0.235989	  0.058705	
3.49294	  0.041727	  0.233578	  0.057753	
3.52621	  0.041726	  0.231731	  0.056884	
3.55948	  0.041731	  0.230556	  0.056187	
3.59274	  0.041711	  0.230161	  0.055764	
3.62601	  0.041643	  0.230592	  0.055515	
3.65927	  0.041447	  0.231610	  0.055312	
3.69254	  0.041091	  0.232457	  0.055193	
3.72581	  0.040594	  0.232602	  0.055130	
3.75907	  0.039969	  0.232295	  0.055073	
3.79234	  0.039285	  0.231803	  0.055115	
3.8256	  0.038591	  0.231058	  0.055298	
3.85887	  0.037914	  0.230123	  0.055558	
3.89214	  0.037321	  0.229645	  0.055791	
3.9254	  0.036962	  0.230264	  0.055967	
3.95867	  0.036898	  0.232071	  0.056053	
3.99194	  0.037079	  0.235571	  0.055930	
4.0252	  0.037378	  0.240427	  0.055422	
4.05847	  0.037719	  0.245919	  0.054452	
4.09173	  0.038079	  0.251402	  0.053222	
4.125	  0.038443	  0.256008	  0.051927	
4.15827	  0.038686	  0.259515	  0.050733	
4.19153	  0.038763	  0.261470	  0.049970	
4.2248	  0.038785	  0.261101	  0.049843	
4.25806	  0.038791	  0.258342	  0.050346	
4.29133	  0.038922	  0.253997	  0.051357	
4.3246	  0.039296	  0.249202	  0.052588	
4.35786	  0.039838	  0.244712	  0.053834	
4.39113	  0.040396	  0.240360	  0.054951	
4.4244	  0.040916	  0.236000	  0.055732	
4.45766	  0.041334	  0.231476	  0.056123	
4.49093	  0.041620	  0.227199	  0.056043	
4.52419	  0.041773	  0.223880	  0.055661	
4.55746	  0.041756	  0.221965	  0.055196	
4.59073	  0.041545	  0.221883	  0.054744	
4.62399	  0.041170	  0.223806	  0.054400	
4.65726	  0.040691	  0.227553	  0.054292	
4.69052	  0.040210	  0.232347	  0.054435	
4.72379	  0.039821	  0.237348	  0.054640	
4.75706	  0.039531	  0.241964	  0.054797	
4.79032	  0.039350	  0.245875	  0.054871	
4.82359	  0.039348	  0.249564	  0.054838	
4.85685	  0.039547	  0.253531	  0.054581	
4.89012	  0.039879	  0.257214	  0.054086	
4.92339	  0.040233	  0.259447	  0.053462	
4.95665	  0.040603	  0.259836	  0.052977	
4.98992	  0.041057	  0.259323	  0.052926	
5.02319	  0.041531	  0.259105	  0.053394	
5.05645	  0.041843	  0.259218	  0.054243	
5.08972	  0.041835	  0.258378	  0.055206	
5.12298	  0.041493	  0.255442	  0.056074	
5.15625	  0.040923	  0.250256	  0.056692	
5.18952	  0.040286	  0.243803	  0.056950	
5.22278	  0.039773	  0.237432	  0.056861	
5.25605	  0.039520	  0.232000	  0.056557	
5.28931	  0.039576	  0.228162	  0.056145	
5.32258	  0.039906	  0.226827	  0.055709	
5.35585	  0.040485	  0.227947	  0.055289	
5.38911	  0.041242	  0.231079	  0.054931	
5.42238	  0.042028	  0.235909	  0.054720	
5.45565	  0.042823	  0.241166	  0.054700	
5.48891	  0.043544	  0.245650	  0.054998	
5.52218	  0.044052	  0.249577	  0.055746	
5.55544	  0.044177	  0.253716	  0.056781	
5.58871	  0.043840	  0.257902	  0.057789	
5.62198	  0.043144	  0.261307	  0.058589	
5.65524	  0.042322	  0.263738	  0.059044	
5.68851	  0.041537	  0.265239	  0.058974	
5.72177	  0.040851	  0.265690	  0.058357	
5.75504	  0.040298	  0.264893	  0.057459	
5.78831	  0.039878	  0.262571	  0.056536	
5.82157	  0.039539	  0.259228	  0.055681	
5.85484	  0.039235	  0.256103	  0.054955	
5.8881	  0.038937	  0.253656	  0.054529	
5.92137	  0.038649	  0.251945	  0.054483	
5.95464	  0.038398	  0.250795	  0.054747	
5.9879	  0.038242	  0.249789	  0.055151	
6.02117	  0.038252	  0.248884	  0.055511	
6.05444	  0.038498	  0.247982	  0.055759	
6.0877	  0.038951	  0.247684	  0.055990	
6.12097	  0.039463	  0.248788	  0.056367	
6.15423	  0.039921	  0.251412	  0.056895	
6.1875	  0.040327	  0.255507	  0.057467	
6.22077	  0.040686	  0.260107	  0.057883	
6.25403	  0.040968	  0.263960	  0.058095	
6.2873	  0.041117	  0.265837	  0.058152	
6.32056	  0.041090	  0.264701	  0.058060	
6.35383	  0.040897	  0.260599	  0.057994	
6.3871	  0.040572	  0.255106	  0.058133	
6.42036	  0.040171	  0.249887	  0.058495	
6.45363	  0.039696	  0.245247	  0.058978	
6.4869	  0.039219	  0.241089	  0.059365	
6.52016	  0.038936	  0.237896	  0.059516	
6.55343	  0.038967	  0.235974	  0.059527	
6.58669	  0.039254	  0.235098	  0.059632	
6.61996	  0.039639	  0.233983	  0.059930	
6.65323	  0.039923	  0.231752	  0.060391	
6.68649	  0.040077	  0.229106	  0.060940	
6.71976	  0.040217	  0.227292	  0.061583	
6.75302	  0.040480	  0.226952	  0.062208	
6.78629	  0.040953	  0.228119	  0.062609	
6.81956	  0.041645	  0.230330	  0.062477	
6.85282	  0.042348	  0.233061	  0.061764	
6.88609	  0.042791	  0.236039	  0.060685	
6.91935	  0.042898	  0.239610	  0.059606	
6.95262	  0.042662	  0.243947	  0.058749	
6.98589	  0.042149	  0.248247	  0.058192	
7.01915	  0.041444	  0.251769	  0.058004	
7.05242	  0.040646	  0.254053	  0.058156	
7.08569	  0.039963	  0.254641	  0.058547	
7.11895	  0.039554	  0.253004	  0.059027	
7.15222	  0.039388	  0.249047	  0.059497	
7.18548	  0.039309	  0.243966	  0.059887	
7.21875	  0.039291	  0.239255	  0.060034	
7.25202	  0.039480	  0.235449	  0.059712	
7.28528	  0.039913	  0.232456	  0.058845	
7.31855	  0.040534	  0.230314	  0.057571	
7.35181	  0.041322	  0.229062	  0.056146	
7.38508	  0.042327	  0.228738	  0.054857	
7.41835	  0.043552	  0.229473	  0.054120	
7.45161	  0.044928	  0.231603	  0.054161	
7.48488	  0.046278	  0.235081	  0.055123	
7.51815	  0.047417	  0.239487	  0.057330	
7.55141	  0.048319	  0.244469	  0.061119	
7.58468	  0.049335	  0.249262	  0.066869	
7.61794	  0.050847	  0.252560	  0.074792	
7.65121	  0.053058	  0.253494	  0.084594	
7.68448	  0.055892	  0.252033	  0.095566	
7.71774	  0.059136	  0.249107	  0.106112	
7.75101	  0.062747	  0.245703	  0.113639	
7.78427	  0.066716	  0.242138	  0.116213	
7.81754	  0.070853	  0.239032	  0.115983	
7.85081	  0.075318	  0.236897	  0.115320	
7.88407	  0.080450	  0.235639	  0.115430	
7.91734	  0.086351	  0.235569	  0.116053	
7.9506	  0.092146	  0.237157	  0.115454	
7.98387	  0.096407	  0.239985	  0.111487	
8.01714	  0.099138	  0.243990	  0.105876	
8.0504	  0.101574	  0.249023	  0.101338	
8.08367	  0.103925	  0.254399	  0.099550	
8.11694	  0.105893	  0.259058	  0.100984	
8.1502	  0.106696	  0.262461	  0.104659	
8.18347	  0.106474	  0.264144	  0.108353	
8.21673	  0.105673	  0.264700	  0.109269	
8.25	  0.104875	  0.264930	  0.106596	
8.28327	  0.104153	  0.265047	  0.102985	
8.31653	  0.103924	  0.265759	  0.101063	
8.3498	  0.104765	  0.267831	  0.102237	
8.38306	  0.106452	  0.271380	  0.106470	
8.41633	  0.108267	  0.275068	  0.112411	
8.4496	  0.109883	  0.276851	  0.117352	
8.48286	  0.111624	  0.277134	  0.117597	
8.51613	  0.114154	  0.277066	  0.112713	
8.5494	  0.117125	  0.277729	  0.105156	
8.58266	  0.119844	  0.279534	  0.096858	
8.61593	  0.122357	  0.281965	  0.088639	
8.64919	  0.125370	  0.284345	  0.080793	
8.68246	  0.129236	  0.286627	  0.073751	
8.71573	  0.133430	  0.288949	  0.068010	
8.74899	  0.137597	  0.290949	  0.063521	
8.78226	  0.141284	  0.291784	  0.059942	
8.81552	  0.143412	  0.290939	  0.057075	
8.84879	  0.143141	  0.289213	  0.054980	
8.88206	  0.140305	  0.287597	  0.053627	
8.91532	  0.135972	  0.286756	  0.052947	
8.94859	  0.131395	  0.286168	  0.053056	
8.98185	  0.127016	  0.284843	  0.054070	
9.01512	  0.123616	  0.283433	  0.055919	
9.04839	  0.121396	  0.282593	  0.058313	
9.08165	  0.119782	  0.282295	  0.060935	
9.11492	  0.118560	  0.281117	  0.063403	
9.14819	  0.118012	  0.278550	  0.065185	
9.18145	  0.119540	  0.275127	  0.065835	
9.21472	  0.122847	  0.271045	  0.065676	
9.24798	  0.126891	  0.266195	  0.065284	
9.28125	  0.130705	  0.261099	  0.064893	
9.31452	  0.134465	  0.256975	  0.064471	
9.34778	  0.138674	  0.254645	  0.064012	
9.38105	  0.143017	  0.253920	  0.063569	
9.41431	  0.146567	  0.254201	  0.063205	
9.44758	  0.148721	  0.254320	  0.062993	
9.48085	  0.150062	  0.254466	  0.063267	
9.51411	  0.151073	  0.255815	  0.064191	
9.54738	  0.152026	  0.259240	  0.065806	
9.58065	  0.152045	  0.264731	  0.068158	
9.61391	  0.151139	  0.271614	  0.071520	
9.64718	  0.150584	  0.279195	  0.075998	
9.68044	  0.151539	  0.286271	  0.081334	
9.71371	  0.154098	  0.291875	  0.087246	
9.74698	  0.159112	  0.295062	  0.093732	
9.78024	  0.167620	  0.295663	  0.100637	
9.81351	  0.179835	  0.293865	  0.106910	
9.84677	  0.194780	  0.290085	  0.110428	
9.88004	  0.211631	  0.286178	  0.109151	
9.91331	  0.229268	  0.284732	  0.104972	
9.94657	  0.243768	  0.287300	  0.100733	
9.97984	  0.249255	  0.294026	  0.098472	
10.0131	  0.244244	  0.302581	  0.099213	
10.0464	  0.232423	  0.309784	  0.102831	
10.0796	  0.218313	  0.312815	  0.107683	
10.1129	  0.204494	  0.311336	  0.110741	
10.1462	  0.191660	  0.306861	  0.108894	
10.1794	  0.179966	  0.301404	  0.102644	
10.2127	  0.170129	  0.295956	  0.094391	
10.246	  0.163115	  0.289689	  0.086117	
10.2792	  0.158984	  0.282804	  0.078759	
10.3125	  0.156504	  0.276445	  0.072809	
10.3458	  0.155445	  0.271691	  0.068362	
10.379	  0.155371	  0.268619	  0.065167	
10.4123	  0.155868	  0.266818	  0.063025	
10.4456	  0.156197	  0.266295	  0.061921	
10.4788	  0.157183	  0.266905	  0.061742	
10.5121	  0.159302	  0.267645	  0.062148	
10.5454	  0.162522	  0.267745	  0.062969	
10.5786	  0.166597	  0.267819	  0.064062	
10.6119	  0.170005	  0.269951	  0.065356	
10.6452	  0.170808	  0.276156	  0.066703	
10.6784	  0.168797	  0.286386	  0.067625	
10.7117	  0.165343	  0.298664	  0.067750	
10.745	  0.162056	  0.310431	  0.067318	
10.7782	  0.160172	  0.318801	  0.066764	
10.8115	  0.160620	  0.321606	  0.066283	
10.8448	  0.162878	  0.319829	  0.065895	
10.878	  0.165755	  0.314774	  0.065409	
10.9113	  0.169166	  0.308038	  0.064596	
10.9446	  0.173295	  0.302124	  0.063454	
10.9778	  0.176870	  0.297830	  0.062350	
11.0111	  0.179067	  0.294599	  0.061550	
11.0444	  0.179946	  0.292486	  0.061190	
11.0776	  0.178992	  0.291981	  0.061272	
11.1109	  0.176376	  0.293033	  0.061584	
11.1442	  0.172849	  0.294870	  0.062013	
11.1774	  0.169277	  0.295987	  0.062451	
11.2107	  0.166924	  0.295448	  0.062821	
11.244	  0.165734	  0.292928	  0.063075	
11.2772	  0.165144	  0.289799	  0.063345	
11.3105	  0.165672	  0.287354	  0.063715	
11.3437	  0.168174	  0.285519	  0.064138	
11.377	  0.171498	  0.284183	  0.064578	
11.4103	  0.173834	  0.283672	  0.064800	
11.4435	  0.175030	  0.284808	  0.064564	
11.4768	  0.175895	  0.287486	  0.064165	
11.5101	  0.176432	  0.291973	  0.063830	
11.5433	  0.176716	  0.297983	  0.063546	
11.5766	  0.177399	  0.304848	  0.063444	
11.6099	  0.178854	  0.312174	  0.063646	
11.6431	  0.181278	  0.319032	  0.063967	
11.6764	  0.183868	  0.324112	  0.064128	
11.7097	  0.186075	  0.327948	  0.064359	
11.7429	  0.187690	  0.331420	  0.064730	
11.7762	  0.187820	  0.334959	  0.065128	
11.8095	  0.186788	  0.337632	  0.065418	
11.8427	  0.184761	  0.338824	  0.065728	
11.876	  0.181469	  0.337836	  0.066015	
11.9093	  0.177091	  0.333349	  0.066079	
11.9425	  0.173243	  0.325064	  0.065888	
11.9758	  0.171337	  0.314402	  0.065552	
12.0091	  0.171700	  0.304230	  0.065179	
12.0423	  0.173735	  0.296911	  0.064870	
12.0756	  0.176133	  0.293718	  0.064708	
